<svg xmlns="http://www.w3.org/2000/svg" width="430" height="430" fill="none" viewBox="0 0 430 430"><g clip-path="url(#0NHn8B5n0Oa)"><path fill="#3a3347" d="m168.23 302.71.75-20.97 46.14-15 46.14 15 .5 21.3 37.03-12.039c2.32-.75 4.68-1.11 6.99-1.11 9.54 0 18.41 6.07 21.52 15.64 3.86 11.88-2.64 24.64-14.53 28.51l-25.9 7.22h-.02l-71.34 19.91-36.68-14.338-34.68-5.572-25.93-7.23c-11.88-3.86-18.38-16.62-14.52-28.51 3.11-9.56 11.98-15.63 21.51-15.63 2.32 0 4.68.36 7 1.11z"/><path fill="#4bb3fd" d="M388.16 278.71c-.3 1.77-2.02 2.91-3.75 2.45l-84.2-22.57v-.02c-3.48-.93-6.53-2.9-8.79-5.58h-.01l-30.23-36.01.08 64.76h-92.28v-64.73L138.6 253a17.4 17.4 0 0 1-8.79 5.57v.02l-84.2 22.57c-1.73.46-3.45-.69-3.75-2.45-2.94-17.46 7.83-34.62 25.28-39.3l48.41-12.97 43.72-52.11a35 35 0 0 1 26.81-12.51h57.84a35.02 35.02 0 0 1 26.81 12.5l43.74 52.12 48.41 12.97c17.45 4.68 28.22 21.83 25.28 39.3"/><path fill="#f9c9c0" d="M287.39 341.83c-7.66 23.57-31.43 31.71-55 24.05l-16.84-4.7h-.04l71.34-19.92h.02l.28.1c.2.06.31.27.24.47m-71.94 19.36-16.85 4.7c-23.57 7.66-47.34-.48-55-24.05-.06-.2.05-.41.24-.48l.31-.1 58.44-18.99c4.29 12.97 8.56 25.91 12.85 38.88 0 .01.01.03.01.04m-9.14-288.15h17.39c11.59 0 21 9.41 21 21v24.259c0 16.39-13.3 29.69-29.69 29.69s-29.69-13.3-29.69-29.69v-24.26c0-11.59 9.41-21 21-21z"/><path fill="#b26836" d="M181.31 91.91V57.88c0-1.66 1.34-3 3-3h26.75c8.81 0 16.32 6.37 17.76 15.06 2.17 13.08-7.92 24.97-21.17 24.97h-23.33c-1.66 0-3-1.34-3-3z"/><path fill="#b26836" d="M245.69 94.912h-9.5c-7.6 0-13.77-6.16-13.77-13.77 0-6.97 5.65-12.63 12.63-12.63h3.64c5.52 0 10 4.48 10 10v13.4c0 1.66-1.34 3-3 3"/><path fill="#3a3347" d="m261.76 303.04-46.26 15.03-47.27-15.36.75-20.97h92.28z" opacity=".4" style="mix-blend-mode:multiply"/><path fill="#4bb3fd" d="M388.16 278.71c-.3 1.76-2.02 2.91-3.75 2.45l-84.21-22.57v-.02c-2.33-.62-4.47-1.71-6.3-3.18q-1.365-1.065-2.49-2.4h-.01l-6.03-7.18-24.2-28.83c3.25-8 13.97-9.43 19.21-2.56l21.44 28.11 86.26 24.34c.7 3.83.75 7.83.07 11.84zM213.82 161.9s-12.42 3.99-20.93 6.98c-9.32 3.29-14.48 6.79-23.35 17.04-13.53 15.65-48.44 56.66-48.44 56.66l-45.37 12.21a32.06 32.06 0 0 0-23.07 24.47l-7.06 1.9c-1.73.46-3.45-.69-3.75-2.45-2.94-17.46 7.83-34.62 25.28-39.29l48.41-12.97 43.73-52.11a35 35 0 0 1 25.79-12.5h2.18c.82 0 1.65.04 2.51.08h24.07zm-31.94 59.6v60.24h-12.9v-64.73c4.26-5.37 12.9-2.36 12.9 4.49" opacity=".3" style="mix-blend-mode:multiply"/><path fill="#4bb3fd" d="M181.88 281.74v25.41l-13.65-4.44.75-20.97z" opacity=".4" style="mix-blend-mode:multiply"/><path fill="#3a3347" d="M152.8 297.701c-2.32-.75-4.79-.81-7.11-.81-9.53 0-18.4 6.07-21.51 15.63-3.16 9.72.61 20.02 8.58 25.56l-14.54-4.05c-11.88-3.86-18.38-16.62-14.52-28.51 3.11-9.56 11.98-15.63 21.51-15.63 2.32 0 4.68.36 7 1.11z" opacity=".4" style="mix-blend-mode:multiply"/></g><defs><clipPath id="0NHn8B5n0Oa"><path fill="#fff" d="M0 0h430v430H0z"/></clipPath></defs></svg>