<svg xmlns="http://www.w3.org/2000/svg" width="430" height="430" fill="none" viewBox="0 0 430 430"><g fill="#f9c9c0" style="mix-blend-mode:multiply"><path d="M365.334 257.874a33.7 33.7 0 0 1 3.756 15.376 33.56 33.56 0 0 1-17.07 29.22 43.9 43.9 0 0 1-6.763 38.87 43.9 43.9 0 0 1-35.237 17.75c-1.31 0-2.62-.07-3.9-.19a47.816 47.816 0 0 1-51.97 26.755 47.83 47.83 0 0 1-26.938-15.1 47.83 47.83 0 0 1-12.092-28.415c-.09-1.24-.14-2.47-.14-3.72V79.84C214.98 59 231.37 42 252.27 42c19.53 0 34.7 14.81 36.7 33.81h.2a37.83 37.83 0 0 1 37.85 37.84v.26c-.01 1.23-.08 2.45-.2 3.66 1.09.37 2.16.87 3.21 1.37a42.05 42.05 0 0 1 22.644 27.633 42.06 42.06 0 0 1-6.774 35.077 42.06 42.06 0 0 1 19.401 28.266 42.05 42.05 0 0 1-8.091 33.314c-.71.93-1.46 1.82-2.24 2.68a33.7 33.7 0 0 1 10.364 11.964"/><path d="m186.208 42.98 1.49.38a37.53 37.53 0 0 1 27.28 36.49V338.5c0 1.25-.05 2.48-.14 3.72a48.1 48.1 0 0 1-37.77 43.28c-.55.13-1.1.23-1.66.33l-.44.08c-.54.09-1.03.16-1.54.23l-1.23.15-1.25.12h-.11c-.74.1-1.48.1-2.23.1h-1.45a47.81 47.81 0 0 1-43.32-27.57c-1.29.12-2.59.19-3.91.19a43.92 43.92 0 0 1-35.236-17.75 43.9 43.9 0 0 1-6.764-38.87 33.56 33.56 0 0 1-16.835-25.705 33.56 33.56 0 0 1 11.145-28.635 32 32 0 0 1 2.8-2.24c-.79-.86-1.54-1.75-2.25-2.68a42.07 42.07 0 0 1 11.32-61.6 42.06 42.06 0 0 1 19.12-64.08c-.12-1.21-.2-2.43-.2-3.67v-.25a37.83 37.83 0 0 1 37.78-37.83h.22c2-19 17.18-33.81 36.73-33.78h1.5c.35.01.624.029 1.033.057l.037.003c.43.03.85.06 1.27.11.293.023.585.062.878.101l.292.04c.78.11 1.55.24 2.31.38z"/><path d="M167.858 264.8a3.497 3.497 0 0 0-3.5-3.5 45.63 45.63 0 0 0-45.58 45.57 3.503 3.503 0 0 0 3.5 3.5 3.5 3.5 0 0 0 3.5-3.5 38.62 38.62 0 0 1 38.58-38.57 3.5 3.5 0 0 0 3.5-3.5m7.07-52.04h.27a29.48 29.48 0 0 1-35.86 10.13 3.5 3.5 0 0 0-3.827.693 3.5 3.5 0 0 0-.824 3.8 3.5 3.5 0 0 0 1.861 1.927 36.397 36.397 0 0 0 47.18-17.32 51.33 51.33 0 0 0 31.3-18.54 51.3 51.3 0 0 0 31.26 18.54 36.374 36.374 0 0 0 47.21 17.32 3.5 3.5 0 0 0 2.105-3.27 3.51 3.51 0 0 0-2.216-3.196 3.5 3.5 0 0 0-2.679.046 29.47 29.47 0 0 1-35.87-10.13h.29a51.05 51.05 0 0 0 49.1-36.33 3.501 3.501 0 0 0-4.987-3.959 3.5 3.5 0 0 0-1.713 1.959 44.338 44.338 0 0 1-60.26 27.61 44.34 44.34 0 0 1-18.9-15.79 4.46 4.46 0 0 0-3.34-1.499 4.46 4.46 0 0 0-3.34 1.499 44.35 44.35 0 0 1-43.316 19.054 44.35 44.35 0 0 1-35.854-30.884 3.5 3.5 0 0 0-4.418-2.59 3.49 3.49 0 0 0-2.493 3.181c-.024.48.052.96.221 1.409a51 51 0 0 0 49.1 36.34m90.77 48.54a3.503 3.503 0 0 0-3.5 3.5 3.503 3.503 0 0 0 3.5 3.5 38.614 38.614 0 0 1 38.57 38.57 3.503 3.503 0 0 0 3.5 3.5 3.5 3.5 0 0 0 3.5-3.5 45.62 45.62 0 0 0-45.57-45.57m-2.819 26.04a51.39 51.39 0 0 0-47.85 32.8 51.41 51.41 0 0 0-47.86-32.8 3.502 3.502 0 0 0-2.475 5.975 3.5 3.5 0 0 0 2.475 1.025 44.38 44.38 0 0 1 31.331 12.999 44.38 44.38 0 0 1 12.999 31.331 3.503 3.503 0 0 0 3.5 3.5h.03a3.503 3.503 0 0 0 3.5-3.5 44.38 44.38 0 0 1 12.999-31.331 44.38 44.38 0 0 1 31.331-12.999 3.503 3.503 0 0 0 3.5-3.5 3.5 3.5 0 0 0-3.5-3.5zm-68.061-190.4a16.46 16.46 0 0 1 10.51 3.72 16.63 16.63 0 0 1 6.2 12.91v.07a3.503 3.503 0 0 0 3.5 3.5 3.5 3.5 0 0 0 3.5-3.5v-.07a16.703 16.703 0 0 1 16.7-16.63 3.498 3.498 0 0 0 2.475-5.975 3.5 3.5 0 0 0-2.475-1.025 23.76 23.76 0 0 0-20.2 11.31 23.76 23.76 0 0 0-20.21-11.29 3.502 3.502 0 0 0-2.475 5.975 3.5 3.5 0 0 0 2.475 1.025z" opacity=".7" style="mix-blend-mode:multiply"/><path d="m186.208 43.94 1.49.38a37.53 37.53 0 0 1 27.28 36.49v258.65c0 1.25-.05 2.48-.14 3.72a48.1 48.1 0 0 1-37.77 43.28c-.55.13-1.1.23-1.66.33l-.44.08c-.54.09-1.03.16-1.54.23l-1.23.15-1.25.12h-.11c-.74.1-1.48.1-2.23.1h-1.45a47.81 47.81 0 0 1-43.32-27.57c-1.29.12-2.59.19-3.91.19a43.92 43.92 0 0 1-35.236-17.75 43.9 43.9 0 0 1-6.764-38.87 33.56 33.56 0 0 1-16.835-25.705 33.56 33.56 0 0 1 11.145-28.635 32 32 0 0 1 2.8-2.24c-.79-.86-1.54-1.75-2.25-2.68a42.075 42.075 0 0 1-1.395-49.53 42.1 42.1 0 0 1 12.715-12.07 42.058 42.058 0 0 1 15.91-62.71c1.05-.5 2.12-.96 3.21-1.37-.12-1.21-.2-2.43-.2-3.67v-.25a37.83 37.83 0 0 1 37.78-37.83h.22c2-19 17.18-33.81 36.73-33.78h1.5c.35.01.624.029 1.033.057l.037.003c.43.03.85.06 1.27.11.293.023.585.062.878.101l.292.039c.78.11 1.55.24 2.31.38z" opacity=".5" style="mix-blend-mode:multiply"/></g></svg>