<svg xmlns="http://www.w3.org/2000/svg" width="430" height="430" fill="none" viewBox="0 0 430 430"><path fill="#f28ba8" d="M217.2 57.11a3 3 0 0 1-4 0 63.691 63.691 0 1 0-88.2 91.91l88 88a3 3 0 0 0 4.24 0l88-88a63.677 63.677 0 0 0 .27-88.38 63.68 63.68 0 0 0-88.31-3.53"/><path fill="#f28ba8" d="M215.181 57.89v180a3 3 0 0 1-2.12-.88l-88-88a63.69 63.69 0 0 1 88.15-91.91 3 3 0 0 0 1.97.79" opacity=".5" style="mix-blend-mode:multiply"/><path fill="#f28ba8" d="M323.999 104a63.5 63.5 0 0 1-4.853 24.362A63.5 63.5 0 0 1 305.319 149l-88 88a3 3 0 0 1-2.12.88v-180a3 3 0 0 0 2-.78 63.7 63.7 0 0 1 68.713-11.42A63.7 63.7 0 0 1 323.999 104M150.08 390.46H81.83a6.68 6.68 0 0 1-6.68-6.68v-37.01a6.68 6.68 0 0 1 6.68-6.68h77.32c4.33 0 7.52 4.06 6.49 8.27l-9.06 37c-.74 3-3.42 5.1-6.5 5.1"/><path fill="#f28ba8" d="M81.83 390.46h10a6.68 6.68 0 0 1-6.68-6.68v-37.01a6.68 6.68 0 0 1 6.68-6.68h-10a6.68 6.68 0 0 0-6.68 6.68v37.01a6.68 6.68 0 0 0 6.68 6.68" opacity=".5" style="mix-blend-mode:multiply"/><path fill="#f9c9c0" d="M89.2 340.09v-22.82l-48.46-54.68A26.8 26.8 0 0 1 34 244.82v-89.99c0-9.71 7.87-17.58 17.58-17.58 9.72 0 17.6 7.89 17.58 17.62l-.18 85.17 35.98 40.43s-16.21-18.22-35.98-40.43c-.58-8.74 4.78-12.77 11.13-14.52 9.7-2.67 20.08.58 26.94 7.94l48.28 51.81v54.82"/><path fill="#f9c9c0" d="M49.128 137.42C40.578 138.613 34 145.952 34 154.83v89.99c0 6.55 2.4 12.87 6.74 17.77l48.46 54.68v22.82h10v-27.82l-48.46-54.68A26.8 26.8 0 0 1 44 239.82v-89.99c0-4.844 1.959-9.23 5.128-12.41" opacity=".5" style="mix-blend-mode:multiply"/><path fill="#f9c9c0" d="M68.98 240.04a11153 11153 0 0 0 38.873 43.401 5.53 5.53 0 0 0 4.126 1.829c4.825 0 7.38-5.711 4.154-9.299-7.865-8.753-20.188-22.49-32.152-35.931-.562-8.467 4.45-12.514 10.537-14.349-4.629-1.364-9.602-1.494-14.407-.171-6.35 1.75-11.71 5.78-11.13 14.52" opacity=".5" style="mix-blend-mode:multiply"/><path fill="#f28ba8" d="M279.259 390.46h68.25a6.68 6.68 0 0 0 6.68-6.68v-37.01a6.68 6.68 0 0 0-6.68-6.68h-77.32c-4.33 0-7.52 4.06-6.49 8.27l9.06 37c.74 3 3.42 5.1 6.5 5.1"/><path fill="#f28ba8" d="M347.509 390.46h-10a6.68 6.68 0 0 0 6.68-6.68v-37.01a6.68 6.68 0 0 0-6.68-6.68h10a6.68 6.68 0 0 1 6.68 6.68v37.01a6.68 6.68 0 0 1-6.68 6.68" opacity=".5" style="mix-blend-mode:multiply"/><path fill="#f9c9c0" d="M340.14 340.09v-22.82l48.46-54.68c4.34-4.9 6.74-11.22 6.74-17.77v-89.99c0-9.71-7.87-17.58-17.58-17.58-9.72 0-17.6 7.89-17.58 17.62l.18 85.17-35.98 40.43s16.21-18.22 35.98-40.43c.58-8.74-4.78-12.77-11.13-14.52-9.7-2.67-20.08.58-26.94 7.94l-48.28 51.81v54.82"/><path fill="#f9c9c0" d="M380.212 137.42c8.549 1.193 15.128 8.532 15.128 17.41v89.99c0 6.55-2.4 12.87-6.74 17.77l-48.46 54.68v22.82h-10v-27.82l48.46-54.68c4.34-4.9 6.74-11.22 6.74-17.77v-89.99c0-4.844-1.959-9.23-5.128-12.41" opacity=".5" style="mix-blend-mode:multiply"/><path fill="#f9c9c0" d="M360.359 240.04a11120 11120 0 0 1-38.872 43.401 5.53 5.53 0 0 1-4.126 1.829c-4.825 0-7.38-5.711-4.155-9.299 7.866-8.753 20.189-22.49 32.153-35.931.562-8.467-4.45-12.514-10.537-14.349 4.629-1.364 9.601-1.494 14.407-.171 6.35 1.75 11.71 5.78 11.13 14.52" opacity=".5" style="mix-blend-mode:multiply"/></svg>