<svg xmlns="http://www.w3.org/2000/svg" width="430" height="430" fill="none" viewBox="0 0 430 430"><path fill="#ffc738" d="M227.6 103.26a75.94 75.94 0 0 1 96.169 26.133 75.94 75.94 0 0 1-12.519 98.867"/><path fill="#ffc738" d="m227.6 103.26 4.18 6.24a99 99 0 0 1 21.58-13.4 75.5 75.5 0 0 0-25.76 7.16" opacity=".5" style="mix-blend-mode:multiply"/><path fill="#ebe6ef" d="M149.43 378.46a21.04 21.04 0 0 0 12.985 19.434A21.035 21.035 0 0 0 191.5 378.46c0-9.07-12.81-32.16-18.44-41.86a3 3 0 0 0-2.59-1.486 3 3 0 0 0-2.59 1.486c-5.63 9.7-18.45 32.79-18.45 41.86"/><path fill="#ebe6ef" d="M156.14 378.46c0-8.68 11.75-30.21 17.68-40.55-.26-.46-.52-.9-.76-1.31a3 3 0 0 0-2.59-1.486 3 3 0 0 0-2.59 1.486c-5.63 9.7-18.45 32.79-18.45 41.86a21 21 0 0 0 21 21 22 22 0 0 0 3.35-.27 21 21 0 0 1-17.64-20.73" opacity=".5" style="mix-blend-mode:multiply"/><path fill="#ebe6ef" d="M242.25 346.07a15.649 15.649 0 1 0 31.3 0c0-6.41-8.6-22.23-13.05-30a3 3 0 0 0-2.6-1.503 3 3 0 0 0-2.6 1.503c-4.45 7.77-13.05 23.59-13.05 30"/><path fill="#ebe6ef" d="M249 346.07c0-6.06 7.69-20.55 12.29-28.66l-.75-1.32a3 3 0 0 0-2.6-1.503 3 3 0 0 0-2.6 1.503c-4.45 7.75-13.05 23.57-13.05 30a15.65 15.65 0 0 0 15.65 15.65 15.5 15.5 0 0 0 3.35-.37 15.646 15.646 0 0 1-12.29-15.3" opacity=".5" style="mix-blend-mode:multiply"/><path fill="#ebe6ef" d="M67.9 346.07a15.649 15.649 0 0 0 26.717 11.066A15.65 15.65 0 0 0 99.2 346.07c0-6.41-8.6-22.23-13-30a2.99 2.99 0 0 0-2.6-1.503 3 3 0 0 0-2.6 1.503c-4.5 7.77-13.1 23.59-13.1 30"/><path fill="#ebe6ef" d="M74.61 346.07c0-6.06 7.7-20.55 12.29-28.66l-.75-1.32a3 3 0 0 0-5.2 0c-4.45 7.75-13 23.57-13 30a15.65 15.65 0 0 0 15.65 15.65 15.5 15.5 0 0 0 3.35-.37 15.646 15.646 0 0 1-12.34-15.3" opacity=".5" style="mix-blend-mode:multiply"/><path stroke="#ffc738" stroke-linecap="round" stroke-linejoin="round" stroke-width="7" d="M260.56 64.44V30.5m-80.94 60.25-18.9-18.89M336.4 247.52l24 24m7.41-99.83h33.94M336.4 95.85l24-24"/><path fill="#4bb3fd" d="M270.48 149.07a2.68 2.68 0 0 1-1.43-1.34 99 99 0 0 0-89.67-57c-36 0-68.19 20-85.53 48.8a2.665 2.665 0 0 1-2.74 1.27C72.15 137.53 55 154 56.7 173.23a2.69 2.69 0 0 1-1.27 2.55A55.94 55.94 0 0 0 28.26 223c-.46 31.25 25.61 56.83 56.86 56.83h159.33c37.41 0 68.89-30.61 68.75-68a67.755 67.755 0 0 0-42.72-62.76"/><path fill="#4bb3fd" d="M104.87 224.86a55.92 55.92 0 0 1 27.14-48 2.68 2.68 0 0 0 1.31-2.53c-1.76-19.25 15.43-35.75 34.41-32.46a2.68 2.68 0 0 0 2.74-1.26 101.7 101.7 0 0 1 48.65-41.56 98.7 98.7 0 0 0-39.74-8.31c-36 0-68.19 20-85.53 48.8a2.66 2.66 0 0 1-2.74 1.27C72.15 137.53 55 154 56.7 173.23a2.69 2.69 0 0 1-1.27 2.55A55.94 55.94 0 0 0 28.26 223c-.46 31.25 25.61 56.83 56.86 56.83H150a56 56 0 0 1-45.13-54.97" opacity=".5" style="mix-blend-mode:multiply"/></svg>