<svg xmlns="http://www.w3.org/2000/svg" width="430" height="430" fill="none" viewBox="0 0 430 430"><path fill="#ffc738" d="M215 301.29c47.502 0 86.01-38.508 86.01-86.01s-38.508-86.01-86.01-86.01-86.01 38.508-86.01 86.01 38.508 86.01 86.01 86.01"/><path stroke="#ffc738" stroke-linecap="round" stroke-linejoin="round" stroke-width="7" d="M215 93.65V55.16m-86.01 74.12L82.91 83.19m10.46 132.09H54.88m74.11 86.01-46.07 46.08M215 336.92v38.48m86.01-74.11 46.08 46.09m-10.46-132.1h38.49m-74.11-86 46.08-46.09"/><path fill="#ffc738" d="M238.68 295.48a85.946 85.946 0 0 1-84.416-69.771A85.945 85.945 0 0 1 206.9 129.67a86 86 0 0 0-76.331 69.361 86 86 0 0 0 16.894 69.473 86 86 0 0 0 99.657 26.566q-4.12.4-8.44.41" opacity=".5" style="mix-blend-mode:multiply"/></svg>